<svg xmlns="http://www.w3.org/2000/svg" viewBox="0 0 30 30">
  <path d="M7.078,11.808c0-5.173,2.51-7.807,7.449-7.807c4.239,0,6.818,2.072,6.818,5.488c0,1.893-1.056,3.567-2.73,4.281v0.261 c2.867,0.672,4.307,2.538,4.307,5.584c0,3.663-2.373,5.968-6.173,5.968c-2.112,0-3.909-1.015-4.554-2.579h-0.261v6.997H7.078V11.808 z M17.956,19.011c0-1.962-1.221-3.018-3.525-3.018h-0.974v-3.416h0.905c1.632,0,2.661-0.919,2.661-2.387 c0-1.564-0.919-2.483-2.442-2.483c-1.742,0-2.675,1.098-2.675,3.197v6.846c0,2.675,1.097,4.02,3.237,4.02 C16.845,21.768,17.956,20.685,17.956,19.011z" fill="#D29128" />
</svg>